<svg width="30" height="40" viewBox="0 0 30 40" fill="none" xmlns="http://www.w3.org/2000/svg">
<path d="M0 40H16.8571C24.5714 40 30 34.5714 30 28.2857C30 24.6857 28.3429 22.2857 26.5714 20.7429C25.6 19.8286 24.4571 19.0857 23.1429 18.5714C24.0571 18.1143 24.8571 17.5429 25.5429 16.8C26.7429 15.4857 28 13.6 28 10.5714C28 4.85714 23.1429 0 16 0H0V40ZM6.28571 34.5714V21.4286H16.8571C20.9143 21.4286 23.7143 24.2857 23.7143 28C23.7143 31.7143 20.9143 34.5714 16.8571 34.5714H6.28571ZM6.28571 16.2857V5.42857H16C19.4286 5.42857 21.7143 7.65714 21.7143 10.8571C21.7143 14.0571 19.4286 16.2857 16 16.2857H6.28571Z" fill="#11162E"/>
</svg>
