<svg width="30" height="30" viewBox="0 0 30 30" fill="none" xmlns="http://www.w3.org/2000/svg">
<path d="M29.7379 12.198C29.6847 11.9178 29.4398 11.7151 29.1546 11.7151H15.3166C14.9887 11.7151 14.723 11.9808 14.723 12.3087V18.0079C14.723 18.3358 14.9887 18.6016 15.3166 18.6016H22.1116C21.423 19.958 20.35 21.1035 19.0254 21.8804C17.8108 22.5933 16.4188 22.9702 15 22.9702C11.6943 22.9702 8.69443 20.8913 7.53492 17.7966C7.19977 16.9052 7.02984 15.9643 7.02984 14.9999C7.02984 14.1132 7.17463 13.2416 7.45992 12.4097C8.56564 9.19184 11.5958 7.02979 15.0001 7.02979C16.4958 7.02979 17.9531 7.44639 19.2139 8.23453C19.4297 8.36947 19.7077 8.35178 19.9046 8.19047L24.5716 4.36963C24.7087 4.2573 24.7886 4.08955 24.7892 3.91236C24.7898 3.73506 24.7112 3.56684 24.5747 3.45357C21.8925 1.22654 18.4921 0 15 0C6.72896 0 0 6.72896 0 15C0 17.4812 0.618281 19.9394 1.78805 22.1089C4.41252 26.9763 9.47508 30 15 30C18.4573 30 21.8312 28.7955 24.5003 26.6087C27.1325 24.452 28.9692 21.4413 29.6719 18.1315C29.8896 17.1091 30 16.0554 30 14.9999C30 14.057 29.9118 13.1143 29.7379 12.198ZM15 1.18734C17.9734 1.18734 20.8744 2.15279 23.2472 3.91945L19.4738 7.00875C18.1121 6.24451 16.5745 5.8425 15 5.8425C11.3711 5.8425 8.11348 7.98182 6.64717 11.2439L2.96461 8.22902C5.33666 4.02932 9.8424 1.18734 15 1.18734ZM1.18734 15C1.18734 12.9735 1.62609 11.0477 2.41336 9.31225L6.21135 12.4216C5.96684 13.2567 5.8425 14.1219 5.8425 15C5.8425 15.9627 5.99045 16.9056 6.28207 17.809L2.50793 20.8985C1.64303 19.0658 1.18734 17.0419 1.18734 15ZM15 28.8127C10.0752 28.8127 5.54936 26.2034 3.07236 21.9708L6.74473 18.9646C7.41879 20.3701 8.43732 21.5777 9.7265 22.4874C11.275 23.58 13.0985 24.1576 14.9999 24.1576C16.4896 24.1576 17.9537 23.7945 19.2608 23.1064L23.0609 26.2173C20.724 27.8963 17.8938 28.8127 15 28.8127ZM28.5106 17.8846C27.8878 20.8182 26.2965 23.4964 24.0156 25.4644L20.3291 22.4463C21.8009 21.3907 22.9396 19.9146 23.576 18.2162C23.6443 18.0339 23.6189 17.8296 23.508 17.6696C23.3971 17.5097 23.2148 17.4142 23.0201 17.4142H15.9103V12.9023H28.654C28.7594 13.5926 28.8127 14.2961 28.8127 14.9999C28.8127 15.9726 28.7111 16.943 28.5106 17.8846Z" fill="black"/>
</svg>
