<svg width="15" height="15" viewBox="0 0 15 15" fill="none" xmlns="http://www.w3.org/2000/svg">
<path d="M12 15H3V13H1.5C0.67 13 0 12.33 0 11.5V7.5C0 6.67 0.67 6 1.5 6H3V1.5C3 0.67 3.67 0 4.5 0H10.5C11.33 0 12 0.67 12 1.5V6H13.5C14.33 6 15 6.67 15 7.5V11.5C15 12.33 14.33 13 13.5 13H12V15ZM4 14H11V11H4V14ZM12 12H13.5C13.78 12 14 11.78 14 11.5V7.5C14 7.22 13.78 7 13.5 7H1.5C1.22 7 1 7.22 1 7.5V11.5C1 11.78 1.22 12 1.5 12H3V10H12V12ZM4 6H11V1.5C11 1.22 10.78 1 10.5 1H4.5C4.22 1 4 1.22 4 1.5V6Z" fill="#333333"/>
</svg>
