<svg width="16" height="17" viewBox="0 0 16 17" fill="none" xmlns="http://www.w3.org/2000/svg">
<path fill-rule="evenodd" clip-rule="evenodd" d="M2.07692 2.5C1.72276 2.5 1.5 2.75811 1.5 3V15C1.5 15.2419 1.72276 15.5 2.07692 15.5H13.9231C14.2772 15.5 14.5 15.2419 14.5 15V3C14.5 2.75811 14.2772 2.5 13.9231 2.5H12.8462C12.57 2.5 12.3462 2.27614 12.3462 2C12.3462 1.72386 12.57 1.5 12.8462 1.5H13.9231C14.7584 1.5 15.5 2.13732 15.5 3V15C15.5 15.8627 14.7584 16.5 13.9231 16.5H2.07692C1.24155 16.5 0.5 15.8627 0.5 15V3C0.5 2.13732 1.24155 1.5 2.07692 1.5H3.15385C3.42999 1.5 3.65385 1.72386 3.65385 2C3.65385 2.27614 3.42999 2.5 3.15385 2.5H2.07692Z" fill="#333333"/>
<path fill-rule="evenodd" clip-rule="evenodd" d="M4.5 1C4.5 0.723858 4.72386 0.5 5 0.5H11C11.2761 0.5 11.5 0.723858 11.5 1V3C11.5 3.27614 11.2761 3.5 11 3.5H5C4.72386 3.5 4.5 3.27614 4.5 3V1ZM5.5 1.5V2.5H10.5V1.5H5.5Z" fill="#333333"/>
<path fill-rule="evenodd" clip-rule="evenodd" d="M5 7.5C5 7.22386 5.22386 7 5.5 7H11.5C11.7761 7 12 7.22386 12 7.5C12 7.77614 11.7761 8 11.5 8H5.5C5.22386 8 5 7.77614 5 7.5Z" fill="#333333"/>
<path fill-rule="evenodd" clip-rule="evenodd" d="M5 10.5C5 10.2239 5.22386 10 5.5 10H8.5C8.77614 10 9 10.2239 9 10.5C9 10.7761 8.77614 11 8.5 11H5.5C5.22386 11 5 10.7761 5 10.5Z" fill="#333333"/>
</svg>
