<svg width="16" height="16" viewBox="0 0 16 16" fill="none" xmlns="http://www.w3.org/2000/svg">
<path fill-rule="evenodd" clip-rule="evenodd" d="M2.66665 1.06667C2.3721 1.06667 2.13332 1.30545 2.13332 1.6V14.4C2.13332 14.6946 2.3721 14.9333 2.66665 14.9333H13.3333C13.6279 14.9333 13.8667 14.6946 13.8667 14.4V3.95425L10.9791 1.06667H2.66665ZM1.06665 1.6C1.06665 0.716345 1.78299 0 2.66665 0H11.4209L14.9333 3.51242V14.4C14.9333 15.2837 14.217 16 13.3333 16H2.66665C1.78299 16 1.06665 15.2837 1.06665 14.4V1.6ZM4.26665 4.26387H11.7333V5.33053H4.26665V4.26387ZM4.26665 7.46178H11.7333V8.52845H4.26665V7.46178ZM4.26665 10.6667H11.7333V11.7333H4.26665V10.6667Z" fill="#F2F2F2"/>
</svg>
