<svg width="16" height="16" viewBox="0 0 16 16" fill="none" xmlns="http://www.w3.org/2000/svg">
<path fill-rule="evenodd" clip-rule="evenodd" d="M2.66665 1.06667C2.3721 1.06667 2.13332 1.30545 2.13332 1.6V14.4C2.13332 14.6946 2.3721 14.9333 2.66665 14.9333H13.3333C13.6279 14.9333 13.8667 14.6946 13.8667 14.4V3.95425L10.9791 1.06667H2.66665ZM1.06665 1.6C1.06665 0.716345 1.78299 0 2.66665 0H11.4209L14.9333 3.51242V14.4C14.9333 15.2837 14.217 16 13.3333 16H2.66665C1.78299 16 1.06665 15.2837 1.06665 14.4V1.6ZM4.267 4.26352L9.60033 4.26702L9.59963 5.33368L4.2663 5.33018L4.267 4.26352ZM4.26665 7.46178H11.7333V8.52845H4.26665V7.46178ZM4.26723 10.6591L11.7339 10.6672L11.7327 11.7339L4.26607 11.7258L4.26723 10.6591Z" fill="#F2F2F2"/>
</svg>
