<svg width="16" height="16" viewBox="0 0 16 16" fill="none" xmlns="http://www.w3.org/2000/svg">
<path fill-rule="evenodd" clip-rule="evenodd" d="M0 8C0 3.58172 3.58172 0 8 0C12.4183 0 16 3.58172 16 8C16 12.4183 12.4183 16 8 16C3.58172 16 0 12.4183 0 8ZM8 1.06667C4.17083 1.06667 1.06667 4.17083 1.06667 8C1.06667 11.8292 4.17083 14.9333 8 14.9333C11.8292 14.9333 14.9333 11.8292 14.9333 8C14.9333 4.17083 11.8292 1.06667 8 1.06667ZM5.86667 6.4C5.86667 5.22179 6.82179 4.26667 8 4.26667H8.64C9.7593 4.26667 10.6667 5.17404 10.6667 6.29333V6.4C10.6667 7.57821 9.71154 8.53333 8.53333 8.53333V9.6H7.46667V7.46667H8.53333C9.12244 7.46667 9.6 6.9891 9.6 6.4V6.29333C9.6 5.76314 9.17019 5.33333 8.64 5.33333H8C7.4109 5.33333 6.93333 5.8109 6.93333 6.4H5.86667ZM8.53333 10.6667V11.7333H7.46667V10.6667H8.53333Z" fill="#F2F2F2"/>
</svg>
