<svg width="16" height="16" viewBox="0 0 16 16" fill="none" xmlns="http://www.w3.org/2000/svg">
<path fill-rule="evenodd" clip-rule="evenodd" d="M0 8C0 3.58172 3.58172 0 8 0C12.4183 0 16 3.58172 16 8C16 12.4183 12.4183 16 8 16C3.58172 16 0 12.4183 0 8ZM15 8C15 4.13401 11.866 1 8 1C4.13401 1 1 4.13401 1 8C1 11.866 4.13401 15 8 15C11.866 15 15 11.866 15 8Z" fill="#333333"/>
<path fill-rule="evenodd" clip-rule="evenodd" d="M15.7152 0.969885C15.9163 1.15914 15.9259 1.47558 15.7367 1.67667L7.89356 10.01C7.79907 10.1104 7.66732 10.1673 7.52946 10.1673C7.39159 10.1673 7.25985 10.1104 7.16536 10.01L4.81242 7.51001C4.62316 7.30892 4.63275 6.99249 4.83383 6.80323C5.03492 6.61397 5.35135 6.62356 5.54061 6.82464L7.52945 8.93777L15.0085 0.991304C15.1977 0.790217 15.5142 0.780627 15.7152 0.969885Z" fill="#333333"/>
</svg>
