<svg width="16" height="16" viewBox="0 0 16 16" fill="none" xmlns="http://www.w3.org/2000/svg">
<path fill-rule="evenodd" clip-rule="evenodd" d="M2.13356 1.6C2.13356 0.716345 2.84991 0 3.73356 0H13.3336C14.2172 0 14.9336 0.716345 14.9336 1.6V14.4C14.9336 15.2837 14.2172 16 13.3336 16H3.73356C2.84991 16 2.13356 15.2837 2.13356 14.4V11.7333H1.06689V10.6667H2.13356V5.33333H1.06689V4.26667H2.13356V1.6ZM3.20023 5.33333H4.26689V4.26667H3.20023V1.6C3.20023 1.30545 3.43901 1.06667 3.73356 1.06667H13.3336C13.6281 1.06667 13.8669 1.30545 13.8669 1.6V14.4C13.8669 14.6946 13.6281 14.9333 13.3336 14.9333H3.73356C3.43901 14.9333 3.20023 14.6946 3.20023 14.4V11.7333H4.26689V10.6667H3.20023V5.33333ZM6.40023 5.33333C6.40023 4.15513 7.35535 3.2 8.53356 3.2C9.71177 3.2 10.6669 4.15513 10.6669 5.33333C10.6669 6.51154 9.71177 7.46667 8.53356 7.46667C7.35535 7.46667 6.40023 6.51154 6.40023 5.33333ZM8.53356 4.26667C7.94446 4.26667 7.4669 4.74423 7.4669 5.33333C7.4669 5.92244 7.94446 6.4 8.53356 6.4C9.12267 6.4 9.60023 5.92244 9.60023 5.33333C9.60023 4.74423 9.12267 4.26667 8.53356 4.26667ZM8.53356 9.6C7.35532 9.6 6.40023 10.555 6.40023 11.7332L10.6669 11.7333C10.6669 10.5551 9.71177 9.6 8.53356 9.6ZM5.33356 11.7332C5.33356 9.96586 6.76628 8.53333 8.53356 8.53333C10.3009 8.53333 11.7336 9.96602 11.7336 11.7333V12.8H5.33356V11.7332Z" fill="#F2F2F2"/>
</svg>
