<svg width="16" height="16" viewBox="0 0 16 16" fill="none" xmlns="http://www.w3.org/2000/svg">
<path fill-rule="evenodd" clip-rule="evenodd" d="M5.86667 1.06667C4.39342 1.06667 3.2 2.25981 3.2 3.73125C3.2 5.20268 4.39342 6.39583 5.86667 6.39583C7.33991 6.39583 8.53333 5.20268 8.53333 3.73125C8.53333 2.25981 7.33991 1.06667 5.86667 1.06667ZM2.13333 3.73125C2.13333 1.67005 3.80498 0 5.86667 0C7.92836 0 9.6 1.67005 9.6 3.73125C9.6 5.79244 7.92836 7.46249 5.86667 7.46249C3.80498 7.46249 2.13333 5.79244 2.13333 3.73125ZM9.6 6.93333C9.6 5.46057 10.7939 4.26667 12.2667 4.26667C13.7394 4.26667 14.9333 5.46057 14.9333 6.93333C14.9333 8.40609 13.7394 9.6 12.2667 9.6C10.7939 9.6 9.6 8.40609 9.6 6.93333ZM12.2667 5.33333C11.383 5.33333 10.6667 6.04968 10.6667 6.93333C10.6667 7.81699 11.383 8.53333 12.2667 8.53333C13.1503 8.53333 13.8667 7.81699 13.8667 6.93333C13.8667 6.04968 13.1503 5.33333 12.2667 5.33333ZM3.73333 10.6604C2.26046 10.6604 1.06667 11.8539 1.06667 13.3265V14.9236H10.6667V13.3265C10.6667 11.8539 9.47288 10.6604 8 10.6604H3.73333ZM0 13.3265C0 11.2646 1.67159 9.59375 3.73333 9.59375H8C10.0617 9.59375 11.7333 11.2646 11.7333 13.3265V15.9903H0V13.3265ZM14.9333 13.8667C14.9333 12.6885 13.9782 11.7333 12.8 11.7333V10.6667C14.5673 10.6667 16 12.0994 16 13.8667V16H12.8V14.9333H14.9333V13.8667Z" fill="#333333"/>
</svg>
