<svg width="16" height="16" viewBox="0 0 16 16" fill="none" xmlns="http://www.w3.org/2000/svg">
<path fill-rule="evenodd" clip-rule="evenodd" d="M13.3333 1.06667C12.45 1.06667 11.7333 1.78332 11.7333 2.66528C11.7333 3.54723 12.45 4.26389 13.3333 4.26389C14.2167 4.26389 14.9333 3.54723 14.9333 2.66528C14.9333 1.78332 14.2167 1.06667 13.3333 1.06667ZM10.6667 2.66528C10.6667 1.19356 11.8615 0 13.3333 0C14.8052 0 16 1.19356 16 2.66528C16 4.13699 14.8052 5.33055 13.3333 5.33055C12.8137 5.33055 12.3287 5.1818 11.9185 4.92457L9.72208 7.99552L11.9141 11.0684C12.3252 10.8095 12.8119 10.6597 13.3333 10.6597C14.8052 10.6597 16 11.8533 16 13.325C16 14.7967 14.8052 15.9903 13.3333 15.9903C11.8615 15.9903 10.6667 14.7967 10.6667 13.325C10.6667 12.7643 10.8401 12.244 11.1362 11.8146L8.79548 8.53333H5.27888C5.02962 9.74715 3.95411 10.6604 2.66667 10.6604C1.19484 10.6604 0 9.46684 0 7.99513C0 6.52341 1.19484 5.32985 2.66667 5.32985C3.95755 5.32985 5.03537 6.24799 5.28087 7.46667L8.78892 7.46667L11.1394 4.18028C10.8414 3.75006 10.6667 3.228 10.6667 2.66528ZM4.26667 7.99513C4.26667 7.11317 3.55004 6.39652 2.66667 6.39652C1.78329 6.39652 1.06667 7.11317 1.06667 7.99513C1.06667 8.87708 1.78329 9.59373 2.66667 9.59373C3.55004 9.59373 4.26667 8.87708 4.26667 7.99513ZM13.3333 11.7264C12.45 11.7264 11.7333 12.443 11.7333 13.325C11.7333 14.2069 12.45 14.9236 13.3333 14.9236C14.2167 14.9236 14.9333 14.2069 14.9333 13.325C14.9333 12.443 14.2167 11.7264 13.3333 11.7264Z" fill="#F2F2F2"/>
</svg>
