<svg width="16" height="16" viewBox="0 0 16 16" fill="none" xmlns="http://www.w3.org/2000/svg">
<path fill-rule="evenodd" clip-rule="evenodd" d="M14 4.5V2.5H10V4.5H14ZM6 7.5V2.5H2V7.5H6ZM14 13.5V8.5H10V13.5H14ZM6 13.5V11.5H2V13.5H6ZM6.5 8.5C6.77614 8.5 7 8.27614 7 8V2C7 1.72386 6.77614 1.5 6.5 1.5H1.5C1.22386 1.5 1 1.72386 1 2V8C1 8.27614 1.22386 8.5 1.5 8.5H6.5ZM14.5 5.5C14.7761 5.5 15 5.27614 15 5V2C15 1.72386 14.7761 1.5 14.5 1.5H9.5C9.22386 1.5 9 1.72386 9 2V5C9 5.27614 9.22386 5.5 9.5 5.5H14.5ZM15 14C15 14.2761 14.7761 14.5 14.5 14.5H9.5C9.22386 14.5 9 14.2761 9 14V8C9 7.72386 9.22386 7.5 9.5 7.5H14.5C14.7761 7.5 15 7.72386 15 8V14ZM6.5 14.5C6.77614 14.5 7 14.2761 7 14V11C7 10.7239 6.77614 10.5 6.5 10.5H1.5C1.22386 10.5 1 10.7239 1 11V14C1 14.2761 1.22386 14.5 1.5 14.5H6.5Z" fill="#11162E"/>
</svg>
