<svg width="16" height="16" viewBox="0 0 16 16" fill="none" xmlns="http://www.w3.org/2000/svg">
<path fill-rule="evenodd" clip-rule="evenodd" d="M2.66689 1.06667C2.37234 1.06667 2.13356 1.30545 2.13356 1.6V14.4C2.13356 14.6946 2.37234 14.9333 2.66689 14.9333H13.3336C13.6281 14.9333 13.8669 14.6946 13.8669 14.4V3.95425L10.9793 1.06667H2.66689ZM1.06689 1.6C1.06689 0.716345 1.78324 0 2.66689 0H11.4211L14.9336 3.51242V14.4C14.9336 15.2837 14.2172 16 13.3336 16H2.66689C1.78324 16 1.06689 15.2837 1.06689 14.4V1.6ZM4.26689 4.26387H11.7336V5.33053H4.26689V4.26387ZM4.26689 7.46178H11.7336V8.52845H4.26689V7.46178ZM4.26689 10.6667H11.7336V11.7333H4.26689V10.6667Z" fill="#F2F2F2"/>
</svg>
