<svg width="16" height="16" viewBox="0 0 16 16" fill="none" xmlns="http://www.w3.org/2000/svg">
<path fill-rule="evenodd" clip-rule="evenodd" d="M0 5.86667C0 2.6266 2.6266 0 5.86667 0C6.61929 0 7.33881 0.141723 8 0.399937C8.66119 0.141723 9.38071 0 10.1333 0C13.3734 0 16 2.6266 16 5.86667C16 7.69118 15.1671 9.32117 13.8608 10.3972C13.7229 13.5148 11.1517 16 8 16C4.84834 16 2.27714 13.5148 2.13916 10.3972C0.832873 9.32117 0 7.69118 0 5.86667ZM3.30726 11.1471C3.77254 13.3112 5.69683 14.9333 8 14.9333C10.3032 14.9333 12.2275 13.3112 12.6927 11.1471C11.9193 11.5227 11.0509 11.7333 10.1333 11.7333C9.38071 11.7333 8.66119 11.5916 8 11.3334C7.33881 11.5916 6.61929 11.7333 5.86667 11.7333C4.94909 11.7333 4.08071 11.5227 3.30726 11.1471ZM6.66697 10.6002C6.40671 10.6439 6.13935 10.6667 5.86667 10.6667C4.88314 10.6667 3.9687 10.3709 3.20746 9.86336C3.2683 8.76615 3.69763 7.76723 4.37377 6.98831C4.65958 8.46455 5.49884 9.74338 6.66697 10.6002ZM9.33302 10.6002C9.59329 10.6439 9.86065 10.6667 10.1333 10.6667C11.1169 10.6667 12.0313 10.3709 12.7925 9.86336C12.7317 8.76614 12.3024 7.76723 11.6262 6.98831C11.3404 8.46454 10.5012 9.74339 9.33302 10.6002ZM10.6592 6.13664C10.5611 7.90617 9.50452 9.42004 8 10.1677C6.49548 9.42004 5.43891 7.90617 5.3408 6.13664C6.10203 5.62914 7.01647 5.33333 8 5.33333C8.98353 5.33333 9.89797 5.62914 10.6592 6.13664ZM11.7275 5.60284C12.7592 6.45261 13.4955 7.64791 13.7596 9.01168C14.4908 8.16933 14.9333 7.06969 14.9333 5.86667C14.9333 3.2157 12.7843 1.06667 10.1333 1.06667C9.86065 1.06667 9.59329 1.0894 9.33302 1.13309C10.7222 2.15211 11.6463 3.76794 11.7275 5.60284ZM8 1.56561C9.28883 2.2061 10.2489 3.40885 10.5594 4.85291C9.78596 4.47732 8.91758 4.26667 8 4.26667C7.08242 4.26667 6.21404 4.47732 5.44059 4.85291C5.75106 3.40885 6.71117 2.2061 8 1.56561ZM6.66697 1.13309C6.40671 1.0894 6.13935 1.06667 5.86667 1.06667C3.2157 1.06667 1.06667 3.2157 1.06667 5.86667C1.06667 7.06969 1.50923 8.16934 2.24044 9.01169C2.50447 7.64792 3.24085 6.45261 4.27249 5.60284C4.3537 3.76794 5.27777 2.15211 6.66697 1.13309Z" fill="#1D1929"/>
</svg>
