<svg width="16" height="16" viewBox="0 0 16 16" fill="none" xmlns="http://www.w3.org/2000/svg">
<path opacity="0.01" d="M0 0H16V16H0V0Z" fill="#D8D8D8"/>
<path fill-rule="evenodd" clip-rule="evenodd" d="M9.45156 2.79338L10.5619 1L5.5009 1L6.5451 2.81092L5.9461 6.40492L4.59979 8.2C4.35258 8.52962 4.58777 9 4.99979 9H10.9998C11.4118 9 11.647 8.52962 11.3998 8.2L10.0535 6.40492L9.45156 2.79338ZM10.4998 3L11.4122 1.52642C11.8246 0.86023 11.3455 0 10.5619 0H5.5009C4.73135 0 4.25019 0.832853 4.6346 1.49952L5.49979 3L4.99979 6L3.79979 7.6C3.05815 8.58885 3.76373 10 4.99979 10H10.9998C12.2359 10 12.9414 8.58885 12.1998 7.6L10.9998 6L10.4998 3Z" fill="white"/>
<path d="M7.5 10H8.5V15.5C8.5 15.7761 8.27614 16 8 16C7.72386 16 7.5 15.7761 7.5 15.5V10Z" fill="white"/>
</svg>
