<svg width="16" height="16" viewBox="0 0 16 16" fill="none" xmlns="http://www.w3.org/2000/svg">
<path fill-rule="evenodd" clip-rule="evenodd" d="M8.53333 1.6C8.53333 0.716345 9.24968 0 10.1333 0H14.4C15.2837 0 16 0.716344 16 1.6V5.86667C16 6.75032 15.2837 7.46667 14.4 7.46667H10.1333C9.24968 7.46667 8.53333 6.75032 8.53333 5.86667V1.6ZM10.1333 1.06667C9.83878 1.06667 9.6 1.30545 9.6 1.6V5.86667C9.6 6.16122 9.83878 6.4 10.1333 6.4H14.4C14.6946 6.4 14.9333 6.16122 14.9333 5.86667V1.6C14.9333 1.30545 14.6946 1.06667 14.4 1.06667H10.1333ZM6.4 2.13333H0V1.06667H6.4V2.13333ZM6.4 6.4H0V5.33333H6.4V6.4ZM16 10.6667H0V9.6H16V10.6667ZM16 14.9333H0V13.8667H16V14.9333Z" fill="#F2F2F2"/>
</svg>
