<svg id="Layer_1" data-name="Layer 1" xmlns="http://www.w3.org/2000/svg" xmlns:xlink="http://www.w3.org/1999/xlink" viewBox="0 0 1733.45 1414.64"><defs><style>.cls-1{fill:none;}.cls-2{clip-path:url(#clip-path);}.cls-3{fill:#f7f7ff;}.cls-22,.cls-23,.cls-24,.cls-27,.cls-28,.cls-29,.cls-4{fill-opacity:0;}.cls-5{clip-path:url(#clip-path-2);}.cls-6{fill:#24204c;}.cls-7{clip-path:url(#clip-path-3);}.cls-8{fill:#fff;}.cls-9{clip-path:url(#clip-path-5);}.cls-10{fill:#e3ecff;}.cls-11{clip-path:url(#clip-path-6);}.cls-12{fill:#02adfe;}.cls-13{clip-path:url(#clip-path-7);}.cls-14{fill:#587fff;}.cls-15{fill:#1f1c49;}.cls-16{fill:#fe3e81;}.cls-17{clip-path:url(#clip-path-9);}.cls-18{opacity:0.2;}.cls-19{clip-path:url(#clip-path-10);}.cls-20{opacity:0.1;}.cls-21{clip-path:url(#clip-path-11);}.cls-22,.cls-23,.cls-24,.cls-27,.cls-28,.cls-29{stroke:#24204c;}.cls-22,.cls-23{stroke-width:6px;}.cls-23,.cls-27,.cls-29{stroke-linecap:round;}.cls-23{stroke-linejoin:round;}.cls-24{stroke-width:6px;}.cls-25{fill:#2e5fff;}.cls-26{clip-path:url(#clip-path-12);}.cls-27,.cls-28{stroke-width:5px;}.cls-29{stroke-width:5px;}</style><clipPath id="clip-path"><rect class="cls-1" x="-177.7" y="-371.08" width="2000" height="2000"/></clipPath><clipPath id="clip-path-2"><rect class="cls-1" x="336.98" y="678.02" width="939" height="587"/></clipPath><clipPath id="clip-path-3"><polyline class="cls-1" points="479.29 824.52 479.29 1174.58 1134.79 1174.58 1134.79 824.52 479.29 824.52"/></clipPath><clipPath id="clip-path-5"><polyline class="cls-1" points="531.67 881.15 531.67 1130.03 688.42 1130.03 688.42 881.15 531.67 881.15"/></clipPath><clipPath id="clip-path-6"><polyline class="cls-1" points="731.14 881.61 731.14 1098.44 886.82 1098.44 886.82 881.61 731.14 881.61"/></clipPath><clipPath id="clip-path-7"><polyline class="cls-1" points="934.67 881.15 934.67 1020.53 1091.42 1020.53 1091.42 881.15 934.67 881.15"/></clipPath><clipPath id="clip-path-9"><rect class="cls-1" x="216.3" y="36.92" width="330" height="207"/></clipPath><clipPath id="clip-path-10"><rect class="cls-1" x="1281.3" y="794.42" width="330" height="207"/></clipPath><clipPath id="clip-path-11"><rect class="cls-1" x="844.3" y="24.92" width="155" height="230"/></clipPath><clipPath id="clip-path-12"><rect class="cls-1" x="253.35" y="28.2" width="750" height="823"/></clipPath></defs><g class="cls-2"><path class="cls-3" d="M1543.3,877.92H131.3v422h1412Z"/><path class="cls-4" d="M1543.3,877.92H131.3v422h1412Z"/><g class="cls-5"><path class="cls-6" d="M1140,778.82a15.81,15.81,0,0,0-15.8-15.8h-635a15.81,15.81,0,0,0-15.8,15.8v385.4a15.81,15.81,0,0,0,15.8,15.8h635a15.81,15.81,0,0,0,15.8-15.8Z"/><path class="cls-4" d="M1140,778.82a15.81,15.81,0,0,0-15.8-15.8h-635a15.81,15.81,0,0,0-15.8,15.8v385.4a15.81,15.81,0,0,0,15.8,15.8h635a15.81,15.81,0,0,0,15.8-15.8Z"/><g class="cls-7"><path class="cls-8" d="M1134.79,814.72a9.21,9.21,0,0,0-9.2-9.2H488.49a9.21,9.21,0,0,0-9.2,9.2v350.66a9.2,9.2,0,0,0,9.2,9.2h637.1a9.2,9.2,0,0,0,9.2-9.2Z"/><path class="cls-4" d="M1134.79,814.72a9.21,9.21,0,0,0-9.2-9.2H488.49a9.21,9.21,0,0,0-9.2,9.2v350.66a9.2,9.2,0,0,0,9.2,9.2h637.1a9.2,9.2,0,0,0,9.2-9.2Z"/></g><g class="cls-7"><path class="cls-8" d="M1134.79,814.72a9.21,9.21,0,0,0-9.2-9.2H488.49a9.21,9.21,0,0,0-9.2,9.2v350.66a9.2,9.2,0,0,0,9.2,9.2h637.1a9.2,9.2,0,0,0,9.2-9.2Z"/><path class="cls-4" d="M1134.79,814.72a9.21,9.21,0,0,0-9.2-9.2H488.49a9.21,9.21,0,0,0-9.2,9.2v350.66a9.2,9.2,0,0,0,9.2,9.2h637.1a9.2,9.2,0,0,0,9.2-9.2Z"/></g><path class="cls-8" d="M511.23,785a10,10,0,1,0,10,10A10,10,0,0,0,511.23,785Z"/><path class="cls-4" d="M511.23,785a10,10,0,1,0,10,10A10,10,0,0,0,511.23,785Z"/><path class="cls-8" d="M545.23,785a10,10,0,1,0,10,10A10,10,0,0,0,545.23,785Z"/><path class="cls-4" d="M545.23,785a10,10,0,1,0,10,10A10,10,0,0,0,545.23,785Z"/><path class="cls-8" d="M578.73,785a10,10,0,1,0,10,10A10,10,0,0,0,578.73,785Z"/><path class="cls-4" d="M578.73,785a10,10,0,1,0,10,10A10,10,0,0,0,578.73,785Z"/><g class="cls-9"><path class="cls-10" d="M688.42,889.14a8,8,0,0,0-8-8H539.67a8,8,0,0,0-8,8V1122a8,8,0,0,0,8,8H680.42a8,8,0,0,0,8-8Z"/><path class="cls-4" d="M688.42,889.14a8,8,0,0,0-8-8H539.67a8,8,0,0,0-8,8V1122a8,8,0,0,0,8,8H680.42a8,8,0,0,0,8-8Z"/></g><g class="cls-11"><path class="cls-12" d="M794.45,1044.75l4-3.82L853,1098.44h28.28a5.56,5.56,0,0,0,5.56-5.56V974.69l-.61.58-80.62-83.4,4-3.86,77.23,79.9V887.16a5.56,5.56,0,0,0-5.56-5.56H736.7a5.56,5.56,0,0,0-5.56,5.56v39.17L837.43,1041l-4.08,3.78L731.14,934.5v158.38a5.56,5.56,0,0,0,5.56,5.56H845.32l-50.87-53.69ZM781.8,888,822.11,930l-4,3.85-40.31-41.93,4-3.85Zm100.08,150.12-4,3.85-66.72-69.5,4-3.85ZM752.76,933.56l4-3.84,125.1,130.66-4,3.84Z"/></g><g class="cls-13"><path class="cls-14" d="M1091.42,889.14a8,8,0,0,0-8-8H942.67a8,8,0,0,0-8,8v123.38a8,8,0,0,0,8,8h140.75a8,8,0,0,0,8-8Z"/><path class="cls-4" d="M1091.42,889.14a8,8,0,0,0-8-8H942.67a8,8,0,0,0-8,8v123.38a8,8,0,0,0,8,8h140.75a8,8,0,0,0,8-8Z"/></g></g><path class="cls-8" d="M1140.25,1326.3l7.82,66.24h210l-80.5-146Z"/><path class="cls-15" d="M1143.46,1392.55h7.14l-8.83-68.44-4.94-.43Zm131.19-142.67L1351,1392.55h6.43l-77.92-145.3Z"/><path class="cls-15" d="M1279.74,1247c4.81,8.51-23.12,33.4-62.39,55.59s-75,33.28-79.81,24.76,23.12-33.4,62.39-55.6S1274.93,1238.5,1279.74,1247Z"/><path class="cls-8" d="M1032.21,1003.38c-3.33,0-5.35,3.41-5.35,11.15,0,27.65,64,165.69,64,176.9s-8.92,8.28-18.56-2.94-5.45-16.51-9.52-39q-4.08-22.44-21-23.44-4.57-.08-7.71,42.9c-3.13,43,15.21,61.84,38.19,78.48s47.84,14.27,71.37,26.35q14.27,7.32,35.27,29.85l79.73-48.93q-5.91-8.22-18.45-41.42c-12.55-33.19-11.58-85-40.66-127.37-18.43-26.82-24.4-22.77-29.56-18.72-3,2.35-5.69,4.69-10.39,1.07-18.92-10.49-22.8-5.08-26.33.32-2.85,4.35-5.47,8.71-15.58,4.74q-22.45-8.83-26.77,25.72a1.65,1.65,0,0,1-.07.54c0-.18,0-.36.07-.54q0-5.5-18.63-43.87c-14.22-29.29-31.53-51.83-40.11-51.83Z"/><path class="cls-15" d="M1179,1306.43a2.74,2.74,0,0,1-2-.88c-13.72-14.71-25.33-24.56-34.51-29.27-9.87-5.07-20.28-7.59-30.34-10-13.71-3.33-27.89-6.77-41.39-16.54-21.74-15.74-42.67-35-39.32-80.91,3-41.8,6.37-45.47,10.38-45.47h.12c12.76.75,20.68,9.4,23.63,25.71a161.14,161.14,0,0,1,2.21,18.26c.65,8.73,1,12.72,6.69,19.4,6.48,7.54,11.13,9.53,12.54,9,.59-.21,1.17-1.61,1.17-4.25,0-3.82-10.84-30.18-21.33-55.67-19-46.25-42.7-103.8-42.7-121.24,0-8.11,2.2-12.73,6.52-13.73,11.35-2.58,30.87,25.76,44.19,53.21,8.08,16.65,12.79,27.1,15.48,33.78,2.27-8.33,5.79-13.85,10.64-16.75s10.85-3,17.81-.25c7.84,3.08,9.45.62,12.11-3.46,4.76-7.28,10.32-12.43,30.13-1.44a1.92,1.92,0,0,1,.35.23c2.86,2.2,3.92,1.37,6.76-.86,2.29-1.81,5.44-4.29,10-3.6,6.32,1,13.67,8,23.81,22.72,19.23,28,25.5,59.83,31,87.92,2.91,14.74,5.64,28.65,9.95,40,8.23,21.8,14.33,35.52,18.11,40.78a2.74,2.74,0,0,1,.47,2.15,2.78,2.78,0,0,1-1.26,1.81L1180.41,1306a2.8,2.8,0,0,1-1.44.4Zm-136.41-177.51c-1,1.8-3.41,9.3-5.67,40.28-3.14,43.17,15.74,60.6,37.06,76,12.62,9.14,25.65,12.3,39.45,15.64,10.38,2.52,21.11,5.12,31.56,10.48,9.39,4.83,21,14.5,34.48,28.78l75.41-46.27c-4.06-6.77-9.71-19.79-17.19-39.57-4.47-11.83-7.25-26-10.19-40.93-5.43-27.56-11.57-58.81-30.16-85.86-8.83-12.85-15.59-19.72-20.09-20.4-2.06-.31-3.51.74-5.72,2.49-2.87,2.26-7.2,5.66-13.37,1-16.78-9.26-19.5-5.09-22.65-.27-2.84,4.35-6.73,10.31-18.76,5.58-5.35-2.11-9.59-2.15-13-.15-5,3-8.42,10.82-10,23.21a4,4,0,0,1-.23,1.47,2.76,2.76,0,0,1-5.37-1.16c0-.12,0-.25,0-.37-.09-1.72-2.23-9.3-18.35-42.51-15.95-32.87-32.87-51.43-38-50.24-1,.24-2.24,2.57-2.24,8.35,0,16.35,24.44,75.76,42.29,119.14,14.29,34.73,21.74,53.07,21.74,57.77,0,6.33-2.59,8.62-4.77,9.43-6.31,2.34-14.39-5.62-18.64-10.58-6.93-8-7.34-13.52-8-22.58a153.12,153.12,0,0,0-2.13-17.68c-2.4-13.26-8.15-20.18-17.53-21.11Z"/><g class="cls-2"><path class="cls-12" d="M1530.79,523.52l-356.26-49.47a8.15,8.15,0,0,1-7-9.2l27.15-195.53a8.16,8.16,0,0,1,9.21-7l356.25,49.47a8.15,8.15,0,0,1,7,9.2L1540,516.56A8.16,8.16,0,0,1,1530.79,523.52Z"/><path class="cls-8" d="M1228.87,410.12a2.78,2.78,0,0,1,2.37,3.14L1227,443.54a2.78,2.78,0,0,1-5.51-.77l4.25-30.29A2.78,2.78,0,0,1,1228.87,410.12Z"/><path class="cls-8" d="M1242.92,412.1a2.76,2.76,0,0,1,2.31,3.17l-4.73,30.21a2.78,2.78,0,1,1-5.49-.86l4.73-30.21A2.78,2.78,0,0,1,1242.92,412.1Z"/><path class="cls-8" d="M1256.4,414a2.78,2.78,0,0,1,2.37,3.14l-4.26,30.28a2.78,2.78,0,1,1-5.5-.77l4.25-30.29A2.77,2.77,0,0,1,1256.4,414Z"/><path class="cls-8" d="M1303.94,421.24a2.77,2.77,0,0,1,2.36,3.14l-4.25,30.28a2.78,2.78,0,1,1-5.51-.77l4.25-30.28A2.79,2.79,0,0,1,1303.94,421.24Z"/><path class="cls-8" d="M1317.7,423.17a2.78,2.78,0,0,1,2.37,3.14l-4.26,30.28a2.78,2.78,0,1,1-5.51-.77l4.26-30.28A2.78,2.78,0,0,1,1317.7,423.17Z"/><path class="cls-8" d="M1331.46,425.11a2.78,2.78,0,0,1,2.37,3.14l-4.26,30.28a2.78,2.78,0,1,1-5.5-.77l4.25-30.29A2.77,2.77,0,0,1,1331.46,425.11Z"/><path class="cls-8" d="M1376.22,432.36a2.77,2.77,0,0,1,2.36,3.14l-4.25,30.28a2.78,2.78,0,1,1-5.51-.77l4.25-30.28A2.79,2.79,0,0,1,1376.22,432.36Z"/><path class="cls-8" d="M1390,434.29a2.78,2.78,0,0,1,2.37,3.14l-4.26,30.28a2.78,2.78,0,1,1-5.51-.77l4.26-30.28A2.78,2.78,0,0,1,1390,434.29Z"/><path class="cls-8" d="M1403.74,436.23a2.78,2.78,0,0,1,2.37,3.14l-4.26,30.28a2.78,2.78,0,1,1-5.5-.77l4.25-30.29A2.77,2.77,0,0,1,1403.74,436.23Z"/><path class="cls-8" d="M1454.05,443.48a2.78,2.78,0,0,1,2.37,3.13l-4.26,30.29a2.78,2.78,0,1,1-5.5-.77l4.25-30.29A2.77,2.77,0,0,1,1454.05,443.48Z"/><path class="cls-8" d="M1467.81,445.41a2.78,2.78,0,0,1,2.37,3.14l-4.26,30.28a2.78,2.78,0,1,1-5.5-.77l4.25-30.28A2.78,2.78,0,0,1,1467.81,445.41Z"/><path class="cls-8" d="M1481.57,447.35a2.78,2.78,0,0,1,2.37,3.13l-4.26,30.29a2.78,2.78,0,1,1-5.5-.77l4.25-30.29A2.77,2.77,0,0,1,1481.57,447.35Z"/><path class="cls-8" d="M1309.3,356l-70.21-9.75a2.77,2.77,0,0,1-2.37-3.13l5.48-39.47a2.77,2.77,0,0,1,3.13-2.37l70.22,9.75a2.77,2.77,0,0,1,2.37,3.13l-5.48,39.47A2.78,2.78,0,0,1,1309.3,356Z"/><path class="cls-16" d="M176.33,288.62A53.71,53.71,0,1,0,230,342.33,53.7,53.7,0,0,0,176.33,288.62Z"/><path class="cls-4" d="M176.33,288.62A53.71,53.71,0,1,0,230,342.33,53.7,53.7,0,0,0,176.33,288.62Z"/><path class="cls-16" d="M1674.91,287.48a45,45,0,1,0,45,45A45,45,0,0,0,1674.91,287.48Z"/><path class="cls-4" d="M1674.91,287.48a45,45,0,1,0,45,45A45,45,0,0,0,1674.91,287.48Z"/><path class="cls-6" d="M1184.29,616.07a23,23,0,1,0,23,23A23,23,0,0,0,1184.29,616.07Z"/><path class="cls-4" d="M1184.29,616.07a23,23,0,1,0,23,23A23,23,0,0,0,1184.29,616.07Z"/><path class="cls-6" d="M100.8,223.17l-89,89.5h89Z"/><path class="cls-4" d="M100.8,223.17l-89,89.5h89Z"/><g class="cls-17"><g class="cls-18"><path class="cls-12" d="M227.4,37.88a11,11,0,1,0,11,11A11,11,0,0,0,227.4,37.88Z"/><path class="cls-4" d="M227.4,37.88a11,11,0,1,0,11,11A11,11,0,0,0,227.4,37.88Z"/></g><g class="cls-18"><path class="cls-12" d="M227.4,99.13a11,11,0,1,0,11,11A11,11,0,0,0,227.4,99.13Z"/><path class="cls-4" d="M227.4,99.13a11,11,0,1,0,11,11A11,11,0,0,0,227.4,99.13Z"/></g><g class="cls-18"><path class="cls-12" d="M227.4,161.13a11,11,0,1,0,11,11A11,11,0,0,0,227.4,161.13Z"/><path class="cls-4" d="M227.4,161.13a11,11,0,1,0,11,11A11,11,0,0,0,227.4,161.13Z"/></g><g class="cls-18"><path class="cls-12" d="M227.4,221.63a11,11,0,1,0,11,11A11,11,0,0,0,227.4,221.63Z"/><path class="cls-4" d="M227.4,221.63a11,11,0,1,0,11,11A11,11,0,0,0,227.4,221.63Z"/></g><g class="cls-18"><path class="cls-12" d="M288.4,37.88a11,11,0,1,0,11,11A11,11,0,0,0,288.4,37.88Z"/><path class="cls-4" d="M288.4,37.88a11,11,0,1,0,11,11A11,11,0,0,0,288.4,37.88Z"/></g><g class="cls-18"><path class="cls-12" d="M288.4,99.13a11,11,0,1,0,11,11A11,11,0,0,0,288.4,99.13Z"/><path class="cls-4" d="M288.4,99.13a11,11,0,1,0,11,11A11,11,0,0,0,288.4,99.13Z"/></g><g class="cls-18"><path class="cls-12" d="M288.4,161.13a11,11,0,1,0,11,11A11,11,0,0,0,288.4,161.13Z"/><path class="cls-4" d="M288.4,161.13a11,11,0,1,0,11,11A11,11,0,0,0,288.4,161.13Z"/></g><g class="cls-18"><path class="cls-12" d="M288.4,221.63a11,11,0,1,0,11,11A11,11,0,0,0,288.4,221.63Z"/><path class="cls-4" d="M288.4,221.63a11,11,0,1,0,11,11A11,11,0,0,0,288.4,221.63Z"/></g><g class="cls-18"><path class="cls-12" d="M350.9,37.88a11,11,0,1,0,11,11A11,11,0,0,0,350.9,37.88Z"/><path class="cls-4" d="M350.9,37.88a11,11,0,1,0,11,11A11,11,0,0,0,350.9,37.88Z"/></g><g class="cls-18"><path class="cls-12" d="M350.9,99.13a11,11,0,1,0,11,11A11,11,0,0,0,350.9,99.13Z"/><path class="cls-4" d="M350.9,99.13a11,11,0,1,0,11,11A11,11,0,0,0,350.9,99.13Z"/></g><g class="cls-18"><path class="cls-12" d="M350.9,161.13a11,11,0,1,0,11,11A11,11,0,0,0,350.9,161.13Z"/><path class="cls-4" d="M350.9,161.13a11,11,0,1,0,11,11A11,11,0,0,0,350.9,161.13Z"/></g><g class="cls-18"><path class="cls-12" d="M350.9,221.63a11,11,0,1,0,11,11A11,11,0,0,0,350.9,221.63Z"/><path class="cls-4" d="M350.9,221.63a11,11,0,1,0,11,11A11,11,0,0,0,350.9,221.63Z"/></g><g class="cls-18"><path class="cls-12" d="M411.9,37.88a11,11,0,1,0,11,11A11,11,0,0,0,411.9,37.88Z"/><path class="cls-4" d="M411.9,37.88a11,11,0,1,0,11,11A11,11,0,0,0,411.9,37.88Z"/></g><g class="cls-18"><path class="cls-12" d="M411.9,99.13a11,11,0,1,0,11,11A11,11,0,0,0,411.9,99.13Z"/><path class="cls-4" d="M411.9,99.13a11,11,0,1,0,11,11A11,11,0,0,0,411.9,99.13Z"/></g><g class="cls-18"><path class="cls-12" d="M411.9,161.13a11,11,0,1,0,11,11A11,11,0,0,0,411.9,161.13Z"/><path class="cls-4" d="M411.9,161.13a11,11,0,1,0,11,11A11,11,0,0,0,411.9,161.13Z"/></g><g class="cls-18"><path class="cls-12" d="M411.9,221.63a11,11,0,1,0,11,11A11,11,0,0,0,411.9,221.63Z"/><path class="cls-4" d="M411.9,221.63a11,11,0,1,0,11,11A11,11,0,0,0,411.9,221.63Z"/></g><g class="cls-18"><path class="cls-12" d="M473.9,37.88a11,11,0,1,0,11,11A11,11,0,0,0,473.9,37.88Z"/><path class="cls-4" d="M473.9,37.88a11,11,0,1,0,11,11A11,11,0,0,0,473.9,37.88Z"/></g><g class="cls-18"><path class="cls-12" d="M473.9,99.13a11,11,0,1,0,11,11A11,11,0,0,0,473.9,99.13Z"/><path class="cls-4" d="M473.9,99.13a11,11,0,1,0,11,11A11,11,0,0,0,473.9,99.13Z"/></g><g class="cls-18"><path class="cls-12" d="M473.9,161.13a11,11,0,1,0,11,11A11,11,0,0,0,473.9,161.13Z"/><path class="cls-4" d="M473.9,161.13a11,11,0,1,0,11,11A11,11,0,0,0,473.9,161.13Z"/></g><g class="cls-18"><path class="cls-12" d="M473.9,221.63a11,11,0,1,0,11,11A11,11,0,0,0,473.9,221.63Z"/><path class="cls-4" d="M473.9,221.63a11,11,0,1,0,11,11A11,11,0,0,0,473.9,221.63Z"/></g><g class="cls-18"><path class="cls-12" d="M534.9,37.88a11,11,0,1,0,11,11A11,11,0,0,0,534.9,37.88Z"/><path class="cls-4" d="M534.9,37.88a11,11,0,1,0,11,11A11,11,0,0,0,534.9,37.88Z"/></g><g class="cls-18"><path class="cls-12" d="M534.9,99.13a11,11,0,1,0,11,11A11,11,0,0,0,534.9,99.13Z"/><path class="cls-4" d="M534.9,99.13a11,11,0,1,0,11,11A11,11,0,0,0,534.9,99.13Z"/></g><g class="cls-18"><path class="cls-12" d="M534.9,161.13a11,11,0,1,0,11,11A11,11,0,0,0,534.9,161.13Z"/><path class="cls-4" d="M534.9,161.13a11,11,0,1,0,11,11A11,11,0,0,0,534.9,161.13Z"/></g><g class="cls-18"><path class="cls-12" d="M534.9,221.63a11,11,0,1,0,11,11A11,11,0,0,0,534.9,221.63Z"/><path class="cls-4" d="M534.9,221.63a11,11,0,1,0,11,11A11,11,0,0,0,534.9,221.63Z"/></g></g><g class="cls-19"><g class="cls-20"><path class="cls-6" d="M1292.4,795.38a11,11,0,1,0,11,11A11,11,0,0,0,1292.4,795.38Z"/><path class="cls-4" d="M1292.4,795.38a11,11,0,1,0,11,11A11,11,0,0,0,1292.4,795.38Z"/></g><g class="cls-20"><path class="cls-6" d="M1292.4,856.63a11,11,0,1,0,11,11A11,11,0,0,0,1292.4,856.63Z"/><path class="cls-4" d="M1292.4,856.63a11,11,0,1,0,11,11A11,11,0,0,0,1292.4,856.63Z"/></g><g class="cls-20"><path class="cls-6" d="M1292.4,918.63a11,11,0,1,0,11,11A11,11,0,0,0,1292.4,918.63Z"/><path class="cls-4" d="M1292.4,918.63a11,11,0,1,0,11,11A11,11,0,0,0,1292.4,918.63Z"/></g><g class="cls-20"><path class="cls-6" d="M1292.4,979.13a11,11,0,1,0,11,11A11,11,0,0,0,1292.4,979.13Z"/><path class="cls-4" d="M1292.4,979.13a11,11,0,1,0,11,11A11,11,0,0,0,1292.4,979.13Z"/></g><g class="cls-20"><path class="cls-6" d="M1353.4,795.38a11,11,0,1,0,11,11A11,11,0,0,0,1353.4,795.38Z"/><path class="cls-4" d="M1353.4,795.38a11,11,0,1,0,11,11A11,11,0,0,0,1353.4,795.38Z"/></g><g class="cls-20"><path class="cls-6" d="M1353.4,856.63a11,11,0,1,0,11,11A11,11,0,0,0,1353.4,856.63Z"/><path class="cls-4" d="M1353.4,856.63a11,11,0,1,0,11,11A11,11,0,0,0,1353.4,856.63Z"/></g><g class="cls-20"><path class="cls-6" d="M1353.4,918.63a11,11,0,1,0,11,11A11,11,0,0,0,1353.4,918.63Z"/><path class="cls-4" d="M1353.4,918.63a11,11,0,1,0,11,11A11,11,0,0,0,1353.4,918.63Z"/></g><g class="cls-20"><path class="cls-6" d="M1353.4,979.13a11,11,0,1,0,11,11A11,11,0,0,0,1353.4,979.13Z"/><path class="cls-4" d="M1353.4,979.13a11,11,0,1,0,11,11A11,11,0,0,0,1353.4,979.13Z"/></g><g class="cls-20"><path class="cls-6" d="M1415.9,795.38a11,11,0,1,0,11,11A11,11,0,0,0,1415.9,795.38Z"/><path class="cls-4" d="M1415.9,795.38a11,11,0,1,0,11,11A11,11,0,0,0,1415.9,795.38Z"/></g><g class="cls-20"><path class="cls-6" d="M1415.9,856.63a11,11,0,1,0,11,11A11,11,0,0,0,1415.9,856.63Z"/><path class="cls-4" d="M1415.9,856.63a11,11,0,1,0,11,11A11,11,0,0,0,1415.9,856.63Z"/></g><g class="cls-20"><path class="cls-6" d="M1415.9,918.63a11,11,0,1,0,11,11A11,11,0,0,0,1415.9,918.63Z"/><path class="cls-4" d="M1415.9,918.63a11,11,0,1,0,11,11A11,11,0,0,0,1415.9,918.63Z"/></g><g class="cls-20"><path class="cls-6" d="M1415.9,979.13a11,11,0,1,0,11,11A11,11,0,0,0,1415.9,979.13Z"/><path class="cls-4" d="M1415.9,979.13a11,11,0,1,0,11,11A11,11,0,0,0,1415.9,979.13Z"/></g><g class="cls-20"><path class="cls-6" d="M1476.9,795.38a11,11,0,1,0,11,11A11,11,0,0,0,1476.9,795.38Z"/><path class="cls-4" d="M1476.9,795.38a11,11,0,1,0,11,11A11,11,0,0,0,1476.9,795.38Z"/></g><g class="cls-20"><path class="cls-6" d="M1476.9,856.63a11,11,0,1,0,11,11A11,11,0,0,0,1476.9,856.63Z"/><path class="cls-4" d="M1476.9,856.63a11,11,0,1,0,11,11A11,11,0,0,0,1476.9,856.63Z"/></g><g class="cls-20"><path class="cls-6" d="M1476.9,918.63a11,11,0,1,0,11,11A11,11,0,0,0,1476.9,918.63Z"/><path class="cls-4" d="M1476.9,918.63a11,11,0,1,0,11,11A11,11,0,0,0,1476.9,918.63Z"/></g><g class="cls-20"><path class="cls-6" d="M1476.9,979.13a11,11,0,1,0,11,11A11,11,0,0,0,1476.9,979.13Z"/><path class="cls-4" d="M1476.9,979.13a11,11,0,1,0,11,11A11,11,0,0,0,1476.9,979.13Z"/></g><g class="cls-20"><path class="cls-6" d="M1538.9,795.38a11,11,0,1,0,11,11A11,11,0,0,0,1538.9,795.38Z"/><path class="cls-4" d="M1538.9,795.38a11,11,0,1,0,11,11A11,11,0,0,0,1538.9,795.38Z"/></g><g class="cls-20"><path class="cls-6" d="M1538.9,856.63a11,11,0,1,0,11,11A11,11,0,0,0,1538.9,856.63Z"/><path class="cls-4" d="M1538.9,856.63a11,11,0,1,0,11,11A11,11,0,0,0,1538.9,856.63Z"/></g><g class="cls-20"><path class="cls-6" d="M1538.9,918.63a11,11,0,1,0,11,11A11,11,0,0,0,1538.9,918.63Z"/><path class="cls-4" d="M1538.9,918.63a11,11,0,1,0,11,11A11,11,0,0,0,1538.9,918.63Z"/></g><g class="cls-20"><path class="cls-6" d="M1538.9,979.13a11,11,0,1,0,11,11A11,11,0,0,0,1538.9,979.13Z"/><path class="cls-4" d="M1538.9,979.13a11,11,0,1,0,11,11A11,11,0,0,0,1538.9,979.13Z"/></g><g class="cls-20"><path class="cls-6" d="M1599.9,795.38a11,11,0,1,0,11,11A11,11,0,0,0,1599.9,795.38Z"/><path class="cls-4" d="M1599.9,795.38a11,11,0,1,0,11,11A11,11,0,0,0,1599.9,795.38Z"/></g><g class="cls-20"><path class="cls-6" d="M1599.9,856.63a11,11,0,1,0,11,11A11,11,0,0,0,1599.9,856.63Z"/><path class="cls-4" d="M1599.9,856.63a11,11,0,1,0,11,11A11,11,0,0,0,1599.9,856.63Z"/></g><g class="cls-20"><path class="cls-6" d="M1599.9,918.63a11,11,0,1,0,11,11A11,11,0,0,0,1599.9,918.63Z"/><path class="cls-4" d="M1599.9,918.63a11,11,0,1,0,11,11A11,11,0,0,0,1599.9,918.63Z"/></g><g class="cls-20"><path class="cls-6" d="M1599.9,979.13a11,11,0,1,0,11,11A11,11,0,0,0,1599.9,979.13Z"/><path class="cls-4" d="M1599.9,979.13a11,11,0,1,0,11,11A11,11,0,0,0,1599.9,979.13Z"/></g></g><g class="cls-21"><path class="cls-12" d="M999.24,72.42a7,7,0,0,0-7-7H851.8a7,7,0,0,0-7,7V247a7,7,0,0,0,7,7H992.24a7,7,0,0,0,7-7Z"/><path class="cls-4" d="M999.24,72.42a7,7,0,0,0-7-7H851.8a7,7,0,0,0-7,7V247a7,7,0,0,0,7,7H992.24a7,7,0,0,0,7-7Z"/><path class="cls-22" d="M941.3,251.42v-184"/><path class="cls-22" d="M844.72,115.33H998.1"/><path class="cls-23" d="M940.66,67.85l.14.07s18.28-10.84,22.28-18.59S961.8,30.17,952.8,30.42h0c-17.25,2.75-13.25,33.66-13.25,33.66S924.43,40,911.68,33c-11.13-6.53-21.63-6-23.88-1-3.15,9.47,49.77,34.48,52.86,35.93"/></g><path class="cls-24" d="M1182.94,163.31l177.18,37,8.38-40.13-177.17-37-8.39,40.14"/><path class="cls-22" d="M1506,692.52l70.49,1L1506,622.26l0,70.26"/><path class="cls-22" d="M950.6,489.21s132.5,10,145,11,17,24,9,29S950.22,632,932.72,643.46,904,637,907.85,623.84s52-158,52-167-6.38-21.63-19.88-22.13c-19.37-.5-22.37,27.5-22.37,27.5"/><path class="cls-6" d="M1540.3,191.92h-48v48h48Z"/><path class="cls-4" d="M1540.3,191.92h-48v48h48Z"/><path class="cls-25" d="M302.39,534.42l-71,26,1,178,192-67Z"/><path class="cls-4" d="M302.39,534.42l-71,26,1,178,192-67Z"/><path class="cls-25" d="M267.39,433.42l-23,56-47.25-32-28.75,28,60,68,71.5-24,3.5-91Z"/><path class="cls-4" d="M267.39,433.42l-23,56-47.25-32-28.75,28,60,68,71.5-24,3.5-91Z"/><g class="cls-26"><path class="cls-27" d="M440.1,234.2s49.25,16.25,64.25,20.75,14.38,25,14.38,25-12,184.5-13.63,201.62,12.25,20.5,12.25,20.5l208,67.5s83.5-116.62,86.5-122.25,9-21.62-10.5-28.12S516.1,323.7,516.1,323.7"/><path class="cls-28" d="M759.35,521.7l-246-84"/><path class="cls-28" d="M789.35,478l-193-67.87"/><path class="cls-6" d="M491.6,519.7a16.75,16.75,0,1,0,16.75,16.75A16.75,16.75,0,0,0,491.6,519.7Z"/><path class="cls-4" d="M491.6,519.7a16.75,16.75,0,1,0,16.75,16.75A16.75,16.75,0,0,0,491.6,519.7Z"/><path class="cls-28" d="M491.6,496.7a39.75,39.75,0,1,0,39.75,39.75A39.75,39.75,0,0,0,491.6,496.7Z"/><path class="cls-6" d="M704.85,588.45A16.75,16.75,0,1,0,721.6,605.2,16.75,16.75,0,0,0,704.85,588.45Z"/><path class="cls-4" d="M704.85,588.45A16.75,16.75,0,1,0,721.6,605.2,16.75,16.75,0,0,0,704.85,588.45Z"/><path class="cls-28" d="M704.85,565.45A39.75,39.75,0,1,0,744.6,605.2,39.75,39.75,0,0,0,704.85,565.45Z"/><path class="cls-29" d="M362.94,535.94l-15.59-5.06"/><path class="cls-29" d="M457.84,566.74,396,546.66"/><path class="cls-29" d="M477.11,573h0"/><path class="cls-29" d="M632.6,623.71l-47.84-15.52"/><path class="cls-29" d="M695.11,644l-27.51-8.93"/></g></g></g></svg>