<svg width="40" height="12" viewBox="0 0 40 12" fill="none" xmlns="http://www.w3.org/2000/svg">
<path d="M22.4967 0.0205078V6.40009C21.0413 5.91304 20.0011 4.57988 20.0011 3.01563C20.0011 2.36419 20.1783 1.7489 20.5015 1.21928L18.3426 0.0205078C17.8085 0.902785 17.5044 1.92587 17.5044 3.01563C17.5044 5.90638 19.6574 8.32341 22.4967 8.88381V12H24.9982V8.88381C26.7704 8.53654 28.2753 7.46498 29.1589 6.00999L26.9933 4.8102C26.5477 5.54757 25.8442 6.11412 24.9982 6.40009V0.0205078H22.4967Z" fill="white"/>
<path d="M27.5 2.41882C29.5656 2.41882 31.2482 4.03154 31.2482 6.00974C31.2482 7.98819 29.5656 9.60194 27.5 9.60194V12H39.9998V9.60194H32.492C33.2802 8.59707 33.7503 7.35598 33.7503 6.00974C33.7503 2.7112 30.9427 0.0205078 27.5 0.0205078V2.41882Z" fill="white"/>
<path d="M13.7515 9.6255H16.253V3.6355H13.7515V9.6255Z" fill="white"/>
<path d="M10.0034 3.6355C10.0034 5.61934 8.31399 7.22591 6.24975 7.22591C4.18685 7.22591 2.50286 5.61934 2.50286 3.6355H0C0 6.93429 2.80781 9.6255 6.24975 9.6255C9.69195 9.6255 12.499 6.93429 12.499 3.6355H10.0034Z" fill="white"/>
<path d="M15.0022 0C14.3103 0.00718133 13.7515 0.546807 13.7515 1.21185C13.7515 1.88125 14.3175 2.42395 15.0159 2.42395C15.7143 2.42395 16.2804 1.88125 16.2804 1.21185C16.2804 0.546807 15.7219 0.00718133 15.0299 0H15.0022Z" fill="white"/>
</svg>
