<svg width="40" height="40" viewBox="0 0 40 40" fill="none" xmlns="http://www.w3.org/2000/svg">
<path d="M38.0857 11.4631C36.7648 8.61031 34.8526 6.21047 32.3201 4.195C32.3876 5.56313 32.5348 8.48938 32.5348 8.48938C32.5348 8.48938 32.6926 8.69672 32.7566 8.78641C35.316 12.3608 36.2512 16.3225 35.3988 20.6256C33.6895 29.2541 25.2782 34.5178 16.7542 32.3659C9.27103 30.4767 4.27318 22.8253 5.6885 15.2395C6.8057 9.25094 10.3449 5.26156 16.0923 3.23438L16.3006 3.15563L16.464 3.03469C17.1606 2.04969 17.8403 1.05266 18.5656 0C9.85478 0.431563 1.09426 7.42 0.0906593 18.0503C-0.880596 28.3366 6.05476 37.5098 15.9651 39.5228C26.2927 41.6205 36.1242 35.5275 39.0951 25.7766C40.5807 20.9006 40.2331 16.1009 38.0857 11.4631V11.4631ZM13.5059 17.8963C13.9414 22.0348 17.5286 24.8553 21.6781 24.3967C25.755 23.9461 28.7354 19.9578 27.9636 15.923C27.3621 12.777 26.6972 9.64328 26.0592 6.50438C25.7953 5.20547 25.5283 3.90703 25.2483 2.53703C25.1378 2.63406 25.0866 2.675 25.0399 2.72078C23.643 4.09016 22.2469 5.46031 20.85 6.82969C19.1491 8.49734 17.4504 10.1672 15.7454 11.8306C14.0354 13.4989 13.257 15.5348 13.5057 17.8963H13.5059Z" fill="black"/>
</svg>
