<svg width="14" height="14" viewBox="0 0 14 14" fill="none" xmlns="http://www.w3.org/2000/svg">
<path fill-rule="evenodd" clip-rule="evenodd" d="M0 6.06667C0 2.71614 2.71614 0 6.06667 0C9.41719 0 12.1333 2.71614 12.1333 6.06667C12.1333 7.57395 11.5836 8.95285 10.6738 10.0138L13.8633 13.2034L13.2034 13.8633L10.0138 10.6738C8.95285 11.5836 7.57395 12.1333 6.06667 12.1333C2.71614 12.1333 0 9.41719 0 6.06667ZM6.06667 0.933333C3.23161 0.933333 0.933333 3.23161 0.933333 6.06667C0.933333 8.90173 3.23161 11.2 6.06667 11.2C8.90173 11.2 11.2 8.90173 11.2 6.06667C11.2 3.23161 8.90173 0.933333 6.06667 0.933333Z" fill="#1D1929"/>
</svg>
