<svg width="16" height="16" viewBox="0 0 16 16" fill="none" xmlns="http://www.w3.org/2000/svg">
<path fill-rule="evenodd" clip-rule="evenodd" d="M7.99997 1.06667C6.52672 1.06667 5.3333 2.25981 5.3333 3.73125C5.3333 5.20268 6.52672 6.39583 7.99997 6.39583C9.47321 6.39583 10.6666 5.20268 10.6666 3.73125C10.6666 2.25981 9.47321 1.06667 7.99997 1.06667ZM4.26663 3.73125C4.26663 1.67005 5.93828 0 7.99997 0C10.0617 0 11.7333 1.67005 11.7333 3.73125C11.7333 5.79244 10.0617 7.46249 7.99997 7.46249C5.93828 7.46249 4.26663 5.79244 4.26663 3.73125ZM5.86663 10.6604C4.39376 10.6604 3.19997 11.8539 3.19997 13.3265V14.9236H12.8V13.3265C12.8 11.8539 11.6062 10.6604 10.1333 10.6604H5.86663ZM2.1333 13.3265C2.1333 11.2646 3.80489 9.59375 5.86663 9.59375H10.1333C12.195 9.59375 13.8666 11.2646 13.8666 13.3265V15.9903H2.1333V13.3265Z" fill="white"/>
</svg>
